<svg xmlns="http://www.w3.org/2000/svg" viewBox="0 0 64 64">
  <defs>
    <linearGradient id="body" x1="0" y1="0" x2="1" y2="1">
      <stop offset="0" stop-color="#F5F0FF"/>
      <stop offset="1" stop-color="#D0BCFF"/>
    </linearGradient>
  </defs>
  <rect x="6" y="10" width="52" height="48" rx="11" fill="url(#body)"/>
  <path d="M6 21 h52 v2 H6 z M6 21 a11 11 0 0 1 11-11 h30 a11 11 0 0 1 11 11" fill="#553C9A"/>
  <rect x="17" y="4" width="5" height="13" rx="2.5" fill="#E9DFFF"/>
  <rect x="42" y="4" width="5" height="13" rx="2.5" fill="#E9DFFF"/>
  <g fill="#9F7AEA">
    <rect x="12" y="27" width="7" height="7" rx="2"/>
    <rect x="23" y="27" width="7" height="7" rx="2"/>
    <rect x="34" y="27" width="7" height="7" rx="2"/>
    <rect x="45" y="27" width="7" height="7" rx="2"/>
    <rect x="12" y="37" width="7" height="7" rx="2"/>
    <rect x="23" y="37" width="7" height="7" rx="2"/>
    <rect x="45" y="37" width="7" height="7" rx="2"/>
    <rect x="12" y="47" width="7" height="7" rx="2"/>
    <rect x="23" y="47" width="7" height="7" rx="2"/>
    <rect x="34" y="47" width="7" height="7" rx="2"/>
    <rect x="45" y="47" width="7" height="7" rx="2"/>
  </g>
  <rect x="34" y="37" width="7" height="7" rx="2" fill="#44337A"/>
</svg>
